<?xml version="1.0" encoding="UTF-8" standalone="no"?>
<!-- Created with Inkscape (http://www.inkscape.org/) -->
<svg
   xmlns:dc="http://purl.org/dc/elements/1.1/"
   xmlns:cc="http://creativecommons.org/ns#"
   xmlns:rdf="http://www.w3.org/1999/02/22-rdf-syntax-ns#"
   xmlns:svg="http://www.w3.org/2000/svg"
   xmlns="http://www.w3.org/2000/svg"
   xmlns:xlink="http://www.w3.org/1999/xlink"
   xmlns:sodipodi="http://sodipodi.sourceforge.net/DTD/sodipodi-0.dtd"
   xmlns:inkscape="http://www.inkscape.org/namespaces/inkscape"
   width="48"
   height="48"
   id="svg2455"
   sodipodi:version="0.32"
   inkscape:version="0.46"
   sodipodi:docbase="/home/matt/projects/opencheesemap/openstreetmap/java/html-images"
   sodipodi:docname="bt_zoom-out.svg"
   inkscape:export-filename="/home/dse/Projekte/gpsdrive.dev/trunk/data/pixmaps/bt_zoom-out.png"
   inkscape:export-xdpi="45"
   inkscape:export-ydpi="45"
   inkscape:output_extension="org.inkscape.output.svg.inkscape"
   version="1.0">
  <defs
     id="defs3">
    <filter
       inkscape:collect="always"
       id="filter9252"
       x="-0.11817165"
       width="1.2363433"
       y="-0.12188582"
       height="1.2437716">
      <feGaussianBlur
         inkscape:collect="always"
         stdDeviation="1.4226674"
         id="feGaussianBlur9254" />
    </filter>
    <inkscape:perspective
       sodipodi:type="inkscape:persp3d"
       inkscape:vp_x="0 : 177.16536 : 1"
       inkscape:vp_y="0 : 1000 : 0"
       inkscape:vp_z="354.33072 : 177.16536 : 1"
       inkscape:persp3d-origin="177.16536 : 118.11024 : 1"
       id="perspective3475" />
    <linearGradient
       id="linearGradient2419">
      <stop
         style="stop-color:#000000;stop-opacity:0.50515461;"
         offset="0.0000000"
         id="stop2420" />
      <stop
         style="stop-color:#000000;stop-opacity:0.0000000;"
         offset="1.0000000"
         id="stop2421" />
    </linearGradient>
    <linearGradient
       id="linearGradient2411">
      <stop
         style="stop-color:#ffffff;stop-opacity:1.0000000;"
         offset="0.0000000"
         id="stop2412" />
      <stop
         style="stop-color:#ffffff;stop-opacity:0.0000000;"
         offset="1.0000000"
         id="stop2413" />
    </linearGradient>
    <linearGradient
       id="linearGradient1767">
      <stop
         style="stop-color:#3f3318;stop-opacity:1.0000000;"
         offset="0.0000000"
         id="stop1768" />
      <stop
         style="stop-color:#815f0e;stop-opacity:1.0000000;"
         offset="1.0000000"
         id="stop1769" />
    </linearGradient>
    <linearGradient
       id="linearGradient1754">
      <stop
         style="stop-color:#747474;stop-opacity:1.0000000;"
         offset="0.0000000"
         id="stop1755" />
      <stop
         style="stop-color:#bebebe;stop-opacity:1.0000000;"
         offset="0.50000000"
         id="stop1757" />
      <stop
         style="stop-color:#d5d5d5;stop-opacity:1.0000000;"
         offset="0.62500000"
         id="stop1759" />
      <stop
         style="stop-color:#818181;stop-opacity:1.0000000;"
         offset="0.75000000"
         id="stop1758" />
      <stop
         style="stop-color:#c3c3c3;stop-opacity:1.0000000;"
         offset="1.0000000"
         id="stop1756" />
    </linearGradient>
    <pattern
       patternUnits="userSpaceOnUse"
       width="28.945312"
       height="33.076172"
       patternTransform="translate(190.4901,70.84341)"
       id="pattern2568">
      <text
         xml:space="preserve"
         style="font-size:12.000000;font-style:normal;font-weight:normal;fill:#000000;fill-opacity:1.0000000;stroke:none;stroke-width:1.0000000pt;stroke-linecap:butt;stroke-linejoin:miter;stroke-opacity:1.0000000;font-family:Bitstream Vera Sans"
         x="189.69904"
         y="67.749657"
         id="text2569"
         transform="translate(-190.4901,-70.84341)"><tspan
           sodipodi:role="line"
           id="tspan2570"
           x="189.69904"
           y="67.749657" /><tspan
           sodipodi:role="line"
           id="tspan2576"
           x="189.69904"
           y="79.749657">0010</tspan><tspan
           sodipodi:role="line"
           id="tspan2578"
           x="189.69904"
           y="91.749657">0100</tspan><tspan
           sodipodi:role="line"
           id="tspan2580"
           x="189.69904"
           y="103.74966">0111</tspan><tspan
           sodipodi:role="line"
           id="tspan2582"
           x="189.69904"
           y="115.74966" /></text>
    </pattern>
    <pattern
       patternUnits="userSpaceOnUse"
       width="32.232422"
       height="37.876175"
       patternTransform="translate(183.7668,59.46841)"
       id="pattern2606">
      <text
         xml:space="preserve"
         style="font-size:12.000000;font-style:normal;font-weight:bold;fill:#000000;fill-opacity:1.0000000;stroke:none;stroke-width:1.0000000pt;stroke-linecap:butt;stroke-linejoin:miter;stroke-opacity:1.0000000;font-family:Bitstream Vera Sans;font-stretch:normal;font-variant:normal;text-anchor:middle;writing-mode:lr;"
         x="189.69904"
         y="67.749657"
         id="text2607"
         transform="translate(-173.5858,-58.84341)"
         sodipodi:linespacing="120%"><tspan
           x="189.69904"
           y="67.749657"
           sodipodi:role="line"
           id="tspan2608">0010</tspan><tspan
           x="189.69904"
           y="82.149657"
           sodipodi:role="line"
           id="tspan2610">0100</tspan><tspan
           x="189.69904"
           y="96.549658"
           sodipodi:role="line"
           id="tspan2612">0111</tspan></text>
    </pattern>
    <pattern
       patternUnits="userSpaceOnUse"
       width="32.232422"
       height="28.276169"
       patternTransform="translate(183.7668,59.46841)"
       id="pattern2623">
      <text
         xml:space="preserve"
         style="font-size:12.000000;font-style:normal;font-variant:normal;font-weight:bold;font-stretch:normal;fill:#000000;fill-opacity:1.0000000;stroke:none;stroke-width:1.0000000pt;stroke-linecap:butt;stroke-linejoin:miter;stroke-opacity:1.0000000;font-family:Bitstream Vera Sans;text-anchor:middle;writing-mode:lr;"
         x="189.69904"
         y="67.749657"
         id="text2624"
         transform="translate(-173.5858,-58.84341)"
         sodipodi:linespacing="80%"><tspan
           x="189.69904"
           y="67.749657"
           sodipodi:role="line"
           id="tspan2625">0010</tspan><tspan
           x="189.69904"
           y="77.349657"
           sodipodi:role="line"
           id="tspan2627">0100</tspan><tspan
           x="189.69904"
           y="86.949657"
           sodipodi:role="line"
           id="tspan2629">0111</tspan></text>
    </pattern>
    <pattern
       patternUnits="userSpaceOnUse"
       width="32.232422"
       height="25.876175"
       patternTransform="translate(183.7668,59.46841)"
       id="pattern2639">
      <text
         xml:space="preserve"
         style="font-size:12.000000;font-style:normal;font-variant:normal;font-weight:bold;font-stretch:normal;fill:#000000;fill-opacity:1.0000000;stroke:none;stroke-width:1.0000000pt;stroke-linecap:butt;stroke-linejoin:miter;stroke-opacity:1.0000000;font-family:Bitstream Vera Sans;text-anchor:middle;writing-mode:lr;"
         x="189.69904"
         y="67.749657"
         id="text2640"
         transform="translate(-173.5858,-58.84341)"
         sodipodi:linespacing="70%"><tspan
           x="189.69904"
           y="67.749657"
           sodipodi:role="line"
           id="tspan2641">0010</tspan><tspan
           x="189.69904"
           y="76.149656"
           sodipodi:role="line"
           id="tspan2643">0100</tspan><tspan
           x="189.69904"
           y="84.549656"
           sodipodi:role="line"
           id="tspan2645">0111</tspan></text>
    </pattern>
    <pattern
       patternUnits="userSpaceOnUse"
       width="96.697266"
       height="77.628510"
       patternTransform="translate(151.5402,41.65591)"
       id="pattern2692">
      <text
         xml:space="preserve"
         style="font-size:36.000000;font-style:normal;font-variant:normal;font-weight:bold;font-stretch:normal;fill:#000000;fill-opacity:1.0000000;stroke:none;stroke-width:1.0000000pt;stroke-linecap:butt;stroke-linejoin:miter;stroke-opacity:1.0000000;font-family:Bitstream Vera Sans;text-anchor:middle;writing-mode:lr;"
         x="189.69904"
         y="67.749657"
         id="text2693"
         transform="translate(-141.3592,-41.03091)"
         sodipodi:linespacing="70%"><tspan
           x="189.69904"
           y="67.749657"
           sodipodi:role="line"
           id="tspan2694">0010</tspan><tspan
           x="189.69904"
           y="92.949656"
           sodipodi:role="line"
           id="tspan2696">0100</tspan><tspan
           x="189.69904"
           y="118.14965"
           sodipodi:role="line"
           id="tspan2698">0111</tspan></text>
    </pattern>
    <linearGradient
       y2="28.274809"
       x2="20.070133"
       y1="3.975668"
       x1="12.113073"
       gradientUnits="userSpaceOnUse"
       id="linearGradient10137"
       xlink:href="#linearGradient1367"
       inkscape:collect="always" />
    <linearGradient
       id="linearGradient1367">
      <stop
         style="stop-color:#525bc6;stop-opacity:1.0000000;"
         offset="0.0000000"
         id="stop1369" />
      <stop
         style="stop-color:#6f76db;stop-opacity:1.0000000;"
         offset="1.0000000"
         id="stop1371" />
    </linearGradient>
    <linearGradient
       id="linearGradient8663">
      <stop
         id="stop8665"
         offset="0.0000000"
         style="stop-color:#20286d;stop-opacity:1.0000000;" />
      <stop
         id="stop8667"
         offset="1.0000000"
         style="stop-color:#0b102f;stop-opacity:1.0000000;" />
    </linearGradient>
    <inkscape:perspective
       id="perspective5662"
       inkscape:persp3d-origin="16 : 10.666667 : 1"
       inkscape:vp_z="32 : 16 : 1"
       inkscape:vp_y="0 : 1000 : 0"
       inkscape:vp_x="0 : 16 : 1"
       sodipodi:type="inkscape:persp3d" />
    <filter
       inkscape:collect="always"
       id="filter3910"
       x="-0.11117472"
       width="1.2223494"
       y="-0.10958972"
       height="1.2191794">
      <feGaussianBlur
         inkscape:collect="always"
         stdDeviation="2.2784444"
         id="feGaussianBlur3912" />
    </filter>
    <filter
       inkscape:collect="always"
       id="filter3914"
       x="-0.061397768"
       width="1.1227955"
       y="-0.11660166"
       height="1.2332033">
      <feGaussianBlur
         inkscape:collect="always"
         stdDeviation="2.2784444"
         id="feGaussianBlur3916" />
    </filter>
    <filter
       inkscape:collect="always"
       id="filter3918">
      <feGaussianBlur
         inkscape:collect="always"
         stdDeviation="2.2784444"
         id="feGaussianBlur3920" />
    </filter>
    <inkscape:perspective
       id="perspective2761"
       inkscape:persp3d-origin="372.04724 : 350.78739 : 1"
       inkscape:vp_z="744.09448 : 526.18109 : 1"
       inkscape:vp_y="0 : 1000 : 0"
       inkscape:vp_x="0 : 526.18109 : 1"
       sodipodi:type="inkscape:persp3d" />
  </defs>
  <sodipodi:namedview
     id="base"
     pagecolor="#ffffff"
     bordercolor="#666666"
     borderopacity="1.0"
     inkscape:pageopacity="0.0"
     inkscape:pageshadow="2"
     inkscape:zoom="1.4142136"
     inkscape:cx="-76.700192"
     inkscape:cy="61.546931"
     inkscape:current-layer="layer1"
     showgrid="true"
     inkscape:grid-bbox="true"
     inkscape:grid-points="true"
     inkscape:window-width="1280"
     inkscape:window-height="1005"
     inkscape:window-x="0"
     inkscape:window-y="800"
     showguides="true"
     inkscape:guide-bbox="true" />
  <metadata
     id="metadata4">
    <rdf:RDF>
      <cc:Work
         rdf:about="">
        <dc:format>image/svg+xml</dc:format>
        <dc:type
           rdf:resource="http://purl.org/dc/dcmitype/StillImage" />
        <cc:license
           rdf:resource="http://creativecommons.org/licenses/publicdomain/" />
      </cc:Work>
      <cc:License
         rdf:about="http://creativecommons.org/licenses/publicdomain/">
        <cc:permits
           rdf:resource="http://creativecommons.org/ns#Reproduction" />
        <cc:permits
           rdf:resource="http://creativecommons.org/ns#Distribution" />
        <cc:permits
           rdf:resource="http://creativecommons.org/ns#DerivativeWorks" />
      </cc:License>
    </rdf:RDF>
  </metadata>
  <g
     inkscape:groupmode="layer"
     id="layer4"
     inkscape:label="Map"
     style="display:block"
     transform="translate(-120.47537,-44.525272)">
    <g
       id="layer1"
       inkscape:label="Calque 1"
       transform="matrix(2.3892809,0,0,2.3892809,145.26041,64.877635)">
      <rect
         style="fill:#e3ffc5;fill-opacity:1;fill-rule:evenodd;stroke:#b8ff6b;stroke-width:0.41853598;stroke-linecap:butt;stroke-linejoin:bevel;stroke-miterlimit:4;stroke-dasharray:none;stroke-dashoffset:0;stroke-opacity:1;display:block"
         id="rect4324"
         width="20.053293"
         height="20.051195"
         x="-10.355214"
         y="-8.49893" />
      <g
         id="g4116"
         style="opacity:0.5">
        <path
           transform="matrix(0.1583763,0,0,0.1702335,-38.037826,-15.636555)"
           sodipodi:nodetypes="cssccsssccccccsssssccc"
           id="path2682"
           d="M 249.08161,139.02227 C 249.08161,136.71879 249.08161,134.4153 249.08161,132.11182 C 249.08161,122.17452 247.32317,121.30574 237.80128,121.30574 C 223.08471,121.30574 240.43535,139.02227 222.21886,139.02227 C 162.25495,144.54072 199.02845,136.08925 186.31155,131.87469 C 182.46308,131.87469 178.21547,116.99038 178.21547,113.14192 C 178.21547,105.35122 207.12129,96.204511 189.02153,96.204511 C 181.73702,96.204511 178.21547,109.43707 178.21547,92.139531 C 178.21547,84.025421 194.77228,76.188623 178.21547,74.524619 C 174.17034,57.745651 177.24843,75.722337 189.05541,56.367712 C 177.03356,47.166818 240.37293,45.441221 213.64854,58.942199 C 213.64854,78.092302 240.91619,75.879612 259.48117,75.879612 C 275.80711,77.369238 262.596,66.174966 259.75219,57.045209 C 260.13602,38.721589 297.84455,62.100346 281.80469,66.123662 C 269.08293,69.921209 318.50124,107.31544 288.07152,107.31544 C 272.7528,107.31544 273.12684,98.711221 258.93917,98.711221 C 250.93904,98.711221 281.63533,104.38007 281.63533,122.49135 C 281.63533,133.48943 277.53994,132.18557 266.79815,130.07933 C 262.27083,129.19162 260.70721,121.30574 256.09369,121.30574 C 234.00609,121.30574 278.45109,142.91221 278.45109,147.79586 C 297.79937,148.53759 249.61892,165.65425 242.30664,147.28774 C 242.30664,144.62292 249.08161,141.6871 249.08161,139.02227 z"
           style="fill:#8ae234;fill-opacity:1;fill-rule:evenodd;stroke:none;stroke-width:1pt;stroke-linecap:butt;stroke-linejoin:miter;stroke-opacity:1;display:block;filter:url(#filter3918);opacity:0.90000000000000002" />
        <path
           transform="matrix(0.1583763,0,0,0.1702335,-38.037826,-15.636555)"
           id="path1901"
           d="M 213.64854,139.02227 C 225.53179,139.22281 231.36507,140.95058 231.36507,128.04684 C 231.36507,97.070691 259.48117,96.096381 259.48117,121.30574 C 259.48117,125.65583 266.79815,127.76173 266.79815,132.11182 C 266.79815,147.26775 270.73002,150.40423 256.09369,150.40423 C 253.75633,150.40423 251.41897,150.40423 249.08161,150.40423 C 245.47581,150.40423 259.65854,124.2082 239.83377,139.02227 C 232.52322,144.48508 222.61789,145.33236 213.64854,147.01674 C 206.03846,148.44587 195.932,150.64156 195.932,139.02227 C 195.932,128.49083 178.21547,97.787671 178.21547,112.46442 C 178.21547,118.55335 202.85236,128.06652 203.92645,139.02227 C 204.24265,142.24751 210.40784,139.02227 213.64854,139.02227 z"
           style="fill:#729fcf;fill-opacity:1;fill-rule:evenodd;stroke:none;stroke-width:1pt;stroke-linecap:butt;stroke-linejoin:miter;stroke-opacity:1;display:block;filter:url(#filter3914);opacity:0.90000000000000002" />
        <path
           transform="matrix(0.1583763,0,0,0.1702335,-38.037826,-15.636555)"
           sodipodi:nodetypes="ccccccccccccc"
           id="path2680"
           d="M 205.95895,69.138514 L 227.90984,60.635926 L 221.54136,75.100483 L 239.83377,75.100483 L 237.80128,92.817021 L 231.16182,101.08248 L 222.21886,92.817021 L 213.44529,101.08248 L 213.44529,110.53355 L 198.43874,106.19757 L 195.72875,92.817021 L 190.64753,82.688444 L 205.95895,69.138514 z"
           style="fill:#888a85;fill-opacity:1;fill-rule:evenodd;stroke:none;stroke-width:0.25000000000000000pt;stroke-linecap:butt;stroke-linejoin:miter;stroke-opacity:1;display:block;filter:url(#filter3910);opacity:0.90000000000000002" />
      </g>
      <g
         id="g9175"
         transform="matrix(0.4543856,0,0,0.4543856,12.280794,-9.5475685)"
         style="opacity:0.9;fill:none;fill-opacity:1;filter:url(#filter9252)">
        <path
           style="fill:none;fill-opacity:1;fill-rule:evenodd;stroke:#000000;stroke-width:2.00000072;stroke-linecap:round;stroke-linejoin:miter;marker:none;marker-start:none;marker-mid:none;marker-end:none;stroke-miterlimit:10;stroke-dasharray:none;stroke-dashoffset:0;stroke-opacity:1;visibility:visible;display:inline;overflow:visible"
           d="M -27.877443,14.064754 C -33.293033,14.064754 -37.688294,18.460016 -37.688294,23.875606 C -37.688294,29.291196 -33.293033,33.686458 -27.877443,33.686458 C -25.562227,33.686458 -23.518558,32.765315 -21.839996,31.422415 C -21.97665,32.09237 -21.891919,32.776702 -21.336876,33.258805 L -14.041626,39.598125 C -13.22094,40.310962 -11.9873,40.217564 -11.274463,39.396877 C -10.561626,38.576189 -10.655024,37.342551 -11.475711,36.629714 L -18.77096,30.290394 C -19.217779,29.902293 -19.764287,29.787389 -20.305478,29.862741 C -18.983574,28.191033 -18.066592,26.170695 -18.066592,23.875606 C -18.066592,18.460016 -22.461853,14.064754 -27.877443,14.064754 z M -27.927756,14.880628 C -22.844635,14.880628 -19.083714,18.067086 -19.083714,23.72467 C -19.083714,29.49689 -22.954006,32.568711 -27.927756,32.568711 C -32.78697,32.568711 -36.771796,28.923714 -36.771796,23.72467 C -36.771796,18.412228 -32.896215,14.880628 -27.927756,14.880628 z"
           id="path9131"
           sodipodi:nodetypes="csscccscccscczzzz" />
        <path
           id="path9133"
           d="M -27.893854,14.022702 C -33.32695,14.022702 -37.736419,18.432172 -37.736419,23.865268 C -37.736419,29.298364 -33.32695,33.707833 -27.893854,33.707833 C -25.571154,33.707833 -23.520878,32.783713 -21.83689,31.436472 C -21.973985,32.108593 -21.888981,32.795137 -21.332144,33.278799 L -14.013312,39.63861 C -13.189973,40.353752 -11.952346,40.260052 -11.237205,39.436711 C -10.522063,38.613371 -10.615764,37.375744 -11.439103,36.660603 L -18.757934,30.300791 C -19.206197,29.911437 -19.754472,29.796161 -20.297412,29.871757 C -18.971235,28.194645 -18.051289,26.167776 -18.051289,23.865268 C -18.051289,18.432172 -22.460758,14.022702 -27.893854,14.022702 z M -27.944329,16.14264 C -23.765024,16.14264 -20.373125,19.534539 -20.373125,23.713844 C -20.373125,27.893149 -23.765024,31.285048 -27.944329,31.285048 C -32.123634,31.285048 -35.515533,27.893149 -35.515533,23.713844 C -35.515533,19.534539 -32.123634,16.14264 -27.944329,16.14264 z"
           style="fill:none;fill-opacity:1;fill-rule:evenodd;stroke:#000000;stroke-width:0.66537726;stroke-linecap:round;stroke-linejoin:miter;marker:none;marker-start:none;marker-mid:none;marker-end:none;stroke-miterlimit:10;stroke-dasharray:none;stroke-dashoffset:0;stroke-opacity:1;visibility:visible;display:inline;overflow:visible" />
        <path
           sodipodi:nodetypes="ccccc"
           id="path9135"
           d="M -13.984747,39.637944 C -14.303245,38.125417 -13.054996,36.436534 -11.600001,36.451869 C -11.600001,36.451869 -18.759701,30.291735 -18.759701,30.291735 C -20.719098,30.254004 -21.60053,31.803881 -21.272707,33.352417 L -13.984747,39.637944 z"
           style="fill:none;fill-opacity:1;fill-rule:evenodd;stroke:#000000;stroke-width:0.66537702;stroke-linecap:round;stroke-linejoin:miter;marker:none;marker-start:none;marker-mid:none;marker-end:none;stroke-miterlimit:10;stroke-dasharray:none;stroke-dashoffset:0;stroke-opacity:1;visibility:visible;display:inline;overflow:visible" />
        <path
           transform="matrix(0.8288887,0,0,0.8288887,-42.550945,7.8630493)"
           d="M 28.549437,18.920233 A 11.048544,11.048544 0 1 1 6.4523487,18.920233 A 11.048544,11.048544 0 1 1 28.549437,18.920233 z"
           sodipodi:ry="11.048544"
           sodipodi:rx="11.048544"
           sodipodi:cy="18.920233"
           sodipodi:cx="17.500893"
           id="path9137"
           style="fill:none;fill-opacity:1;fill-rule:evenodd;stroke:#000000;stroke-width:1.20643401;stroke-linecap:round;stroke-linejoin:miter;marker:none;marker-start:none;marker-mid:none;marker-end:none;stroke-miterlimit:10;stroke-dasharray:none;stroke-dashoffset:0;stroke-opacity:1;visibility:visible;display:inline;overflow:visible"
           sodipodi:type="arc" />
        <rect
           transform="matrix(0.7529858,0.6580368,-0.648902,0.760872,0,0)"
           ry="1.8879361"
           rx="2.1366611"
           y="35.612213"
           x="3.9895236"
           height="2.9545922"
           width="12.674397"
           id="rect9139"
           style="opacity:0.43315507;fill:none;fill-opacity:1;fill-rule:evenodd;stroke:#000000;stroke-width:1.00003111;stroke-linecap:round;stroke-linejoin:miter;marker:none;marker-start:none;marker-mid:none;marker-end:none;stroke-miterlimit:10;stroke-dasharray:none;stroke-dashoffset:0;stroke-opacity:1;visibility:visible;display:inline;overflow:visible" />
        <path
           transform="matrix(0.9306056,0,0,0.9306056,-44.41333,6.4511692)"
           d="M 25.897786,18.478292 A 8.3085051,8.3085051 0 1 1 9.280776,18.478292 A 8.3085051,8.3085051 0 1 1 25.897786,18.478292 z"
           sodipodi:ry="8.3085051"
           sodipodi:rx="8.3085051"
           sodipodi:cy="18.478292"
           sodipodi:cx="17.589281"
           id="path9141"
           style="fill:none;fill-opacity:1;fill-rule:evenodd;stroke:#000000;stroke-width:1.07456946;stroke-linecap:round;stroke-linejoin:miter;marker:none;marker-start:none;marker-mid:none;marker-end:none;stroke-miterlimit:10;stroke-dashoffset:0;stroke-opacity:1;visibility:visible"
           sodipodi:type="arc" />
        <path
           id="path9143"
           d="M -28.190605,16.894695 C -31.655616,16.894695 -34.461482,19.700561 -34.461482,23.165572 C -34.461482,24.166282 -34.181819,25.08703 -33.764718,25.926822 C -32.931413,26.233969 -32.046211,26.442944 -31.106692,26.442944 C -27.00068,26.442944 -23.721485,23.208122 -23.468093,19.165629 C -24.619837,17.80458 -26.269357,16.894695 -28.190605,16.894695 z"
           style="opacity:0.83422457;fill:none;fill-opacity:1;fill-rule:evenodd;stroke:#000000;stroke-width:0.66537702;stroke-linecap:round;stroke-linejoin:miter;marker:none;marker-start:none;marker-mid:none;marker-end:none;stroke-miterlimit:10;stroke-dasharray:none;stroke-dashoffset:0;stroke-opacity:1;visibility:visible;display:inline;overflow:visible" />
      </g>
      <path
         d="M 1.131498,3.6168717 C 4.077742,7.94048 6.100472,9.0537936 6.733859,8.4944838 C 7.326699,7.854077 6.180923,6.0242488 1.477311,3.2264108 L 1.131498,3.6168717 z"
         id="path1187"
         sodipodi:nodetypes="cccc"
         sodipodi:stroke-cmyk="(0 0 0 0.8)"
         style="font-size:12px;fill:#8f5902;fill-opacity:1;fill-rule:evenodd;stroke:#5c3800;stroke-width:0.7041766;stroke-linecap:round;stroke-linejoin:round;stroke-dasharray:none;stroke-opacity:1" />
      <path
         style="font-size:12px;fill:#8f5902;fill-opacity:1;fill-rule:evenodd;stroke:#5c3700;stroke-width:0.7041766;stroke-dasharray:none;stroke-opacity:1;display:block"
         mask="none"
         d="M -1.217339,-3.9008098 C -3.780158,-3.9008098 -5.860473,-1.8204952 -5.860473,0.7423238 C -5.860473,3.3051428 -3.780158,5.385457 -1.217339,5.385457 C 1.34548,5.385457 3.425795,3.3051428 3.425795,0.7423238 C 3.425795,-1.8204952 1.345481,-3.9008098 -1.217339,-3.9008098 z M -1.243497,-2.8806278 C 0.773994,-2.8806278 2.405613,-1.2490082 2.405613,0.7684828 C 2.405614,2.7859718 0.773993,4.430672 -1.243497,4.430672 C -3.260986,4.430672 -4.905687,2.7859718 -4.905687,0.7684828 C -4.905687,-1.2490082 -3.260988,-2.8806278 -1.243497,-2.8806278 z"
         id="path43016" />
      <path
         d="M 47.865601,28.05961 A 20.603802,20.603802 0 1 1 6.6579971,28.05961 A 20.603802,20.603802 0 1 1 47.865601,28.05961 z"
         id="path1175"
         sodipodi:cx="27.261799"
         sodipodi:cy="28.05961"
         sodipodi:fill-cmyk="(0 0 0 0.2)"
         sodipodi:rx="20.603802"
         sodipodi:ry="20.603802"
         sodipodi:stroke-cmyk="(0 0 0 0.8)"
         sodipodi:type="arc"
         style="font-size:12px;opacity:0.6;fill:#eeeeec;fill-opacity:1;fill-rule:evenodd;stroke:none;stroke-width:3.70790005;stroke-dasharray:none;stroke-opacity:1"
         transform="matrix(0.1773883,0,0,0.1773883,-6.053263,-4.235123)" />
      <path
         d="M -2.9594544,0.1271912 L 0.50322467,0.1271912 C 0.69636385,0.1271912 0.84574478,0.18452935 0.95136758,0.29920621 C 1.0600086,0.41086431 1.1143291,0.55722761 1.1143291,0.73829563 C 1.1143291,0.92539943 1.0600086,1.07629 0.95136758,1.1909663 C 0.84272718,1.3056425 0.69334555,1.3629807 0.50322467,1.3629807 L -2.9594544,1.3629807 C -3.1495759,1.3629807 -3.3004663,1.3071514 -3.4121244,1.1954927 C -3.5207654,1.0808165 -3.5750859,0.92841713 -3.5750859,0.73829563 C -3.5750859,0.55421001 -3.5207654,0.40633781 -3.4121244,0.29467921 C -3.3034839,0.18302053 -3.1525936,0.1271912 -2.9594544,0.1271912 z"
         id="path43187"
         style="font-size:12px;font-weight:900;fill:#3465a4;fill-opacity:1;stroke-width:1pt;font-family:VAG Rounded Black SSi"
         sodipodi:nodetypes="ccsssccsssc" />
    </g>
  </g>
</svg>
