/* XPM */
static char * gpsicon_xpm[] = {
"32 32 498 2",
"  	c None",
". 	c #2A6DC1",
"+ 	c #4A7EB0",
"@ 	c #769788",
"# 	c #719585",
"$ 	c #829B78",
"% 	c #7A9075",
"& 	c #7B8C63",
"* 	c #758D5A",
"= 	c #596748",
"- 	c #2D6FBB",
"; 	c #4B8AC7",
"> 	c #B2BEB7",
", 	c #95ABA5",
"' 	c #779BA0",
") 	c #90A297",
"! 	c #A1AB8A",
"~ 	c #9CAB7C",
"{ 	c #869770",
"] 	c #849665",
"^ 	c #85965E",
"/ 	c #717E49",
"( 	c #616638",
"_ 	c #3A78BB",
": 	c #4884BF",
"< 	c #C0CDC9",
"[ 	c #F1F0D4",
"} 	c #DDE3CF",
"| 	c #B8C7C4",
"1 	c #668FAB",
"2 	c #8E9BA1",
"3 	c #ACA996",
"4 	c #B8B195",
"5 	c #989782",
"6 	c #BEB081",
"7 	c #ADAC76",
"8 	c #B7AC61",
"9 	c #3A7CBD",
"0 	c #99B9CF",
"a 	c #F0F2D6",
"b 	c #FEFEE4",
"c 	c #FEFEF2",
"d 	c #FEFEEE",
"e 	c #FDFDDF",
"f 	c #C8D6CB",
"g 	c #B7CCCB",
"h 	c #8BA7AD",
"i 	c #9FA59C",
"j 	c #E6D5A0",
"k 	c #F4E5A7",
"l 	c #B9BA96",
"m 	c #C2C185",
"n 	c #C5B05D",
"o 	c #9C8C4D",
"p 	c #3170AF",
"q 	c #568FC2",
"r 	c #F5F7EF",
"s 	c #FEFEEF",
"t 	c #FEFEF0",
"u 	c #FEFEE7",
"v 	c #FEFEE0",
"w 	c #FEFDDC",
"x 	c #F2F5E0",
"y 	c #D4DAB6",
"z 	c #F8F3B3",
"A 	c #FCF8B8",
"B 	c #DBD29C",
"C 	c #C9C084",
"D 	c #BAA860",
"E 	c #998F5A",
"F 	c #3D7EBF",
"G 	c #ACC3CA",
"H 	c #FAF8D6",
"I 	c #FEFEE9",
"J 	c #FDFDE7",
"K 	c #FEFDE7",
"L 	c #FEFDD7",
"M 	c #FEFEED",
"N 	c #E1E2BB",
"O 	c #C1C59F",
"P 	c #F9F5B5",
"Q 	c #DAD7A0",
"R 	c #B9B387",
"S 	c #A99F61",
"T 	c #908957",
"U 	c #6F6C4D",
"V 	c #2F71B4",
"W 	c #3F82C4",
"X 	c #97B5BA",
"Y 	c #D1D9A6",
"Z 	c #ECEDBB",
"` 	c #FCFBD6",
" .	c #FEFEE3",
"..	c #FEFEEB",
"+.	c #F6F4C1",
"@.	c #95A595",
"#.	c #EDE5A6",
"$.	c #EFEAA7",
"%.	c #C1BC87",
"&.	c #777A5B",
"*.	c #8A8250",
"=.	c #76734F",
"-.	c #2F2E23",
";.	c #3675B8",
">.	c #4284C4",
",.	c #689BC4",
"'.	c #A6BEAF",
").	c #A8BFB0",
"!.	c #B5CAA7",
"~.	c #CCDDAC",
"{.	c #DDE9B5",
"].	c #DEE6B2",
"^.	c #F1EEBA",
"/.	c #FAF3BC",
"(.	c #FCF3B7",
"_.	c #F5E5A9",
":.	c #AEAB90",
"<.	c #D5D19F",
"[.	c #EEE8A5",
"}.	c #CAC085",
"|.	c #384247",
"1.	c #3A403E",
"2.	c #58573F",
"3.	c #3C3C2F",
"4.	c #3472B2",
"5.	c #4183C4",
"6.	c #488CC8",
"7.	c #5393C7",
"8.	c #5793C2",
"9.	c #6C9CB3",
"0.	c #9BBD9E",
"a.	c #94C191",
"b.	c #90BC8D",
"c.	c #AEC290",
"d.	c #CCC991",
"e.	c #E0CC97",
"f.	c #D7C68F",
"g.	c #C4B687",
"h.	c #94977F",
"i.	c #83836F",
"j.	c #928E78",
"k.	c #A39F88",
"l.	c #ADA687",
"m.	c #B1A77E",
"n.	c #ACA277",
"o.	c #867D5A",
"p.	c #56513D",
"q.	c #3470B1",
"r.	c #3F80C1",
"s.	c #4486C4",
"t.	c #498AC6",
"u.	c #4B89C0",
"v.	c #6490B0",
"w.	c #ADBD9B",
"x.	c #AAC18F",
"y.	c #A8BE8F",
"z.	c #B0BC8A",
"A.	c #C4C38C",
"B.	c #D5C58F",
"C.	c #CFBE87",
"D.	c #B2A078",
"E.	c #AFA482",
"F.	c #D2C69B",
"G.	c #D9CEA5",
"H.	c #D5CCAE",
"I.	c #D8D1B6",
"J.	c #DBD3B9",
"K.	c #E0D7B7",
"L.	c #E8DBAD",
"M.	c #E2D39A",
"N.	c #9E9368",
"O.	c #71694A",
"P.	c #316AAB",
"Q.	c #3B7CBD",
"R.	c #4280C1",
"S.	c #4585C0",
"T.	c #4783B9",
"U.	c #5586AF",
"V.	c #B4BCA9",
"W.	c #D0C999",
"X.	c #DAC995",
"Y.	c #D2C38B",
"Z.	c #C7BA86",
"`.	c #AEA580",
" +	c #A59B77",
".+	c #C4B992",
"++	c #D6C89A",
"@+	c #D3CEBB",
"#+	c #DAD8D2",
"$+	c #D6D6D4",
"%+	c #DDDDDC",
"&+	c #E4E4E4",
"*+	c #E0DFDE",
"=+	c #EEEDE8",
"-+	c #E9E5D7",
";+	c #E4D8AD",
">+	c #C8B983",
",+	c #2C63A2",
"'+	c #3972B3",
")+	c #3D77B6",
"!+	c #3F79B5",
"~+	c #4179AE",
"{+	c #467AA8",
"]+	c #B2BDB9",
"^+	c #E9DAAA",
"/+	c #E8CE94",
"(+	c #D8C48B",
"_+	c #C6B680",
":+	c #A09674",
"<+	c #C5B992",
"[+	c #D5CAA1",
"}+	c #D8D7CF",
"|+	c #EFEFEF",
"1+	c #FAFAFA",
"2+	c #838383",
"3+	c #5D5D5D",
"4+	c #ACACAC",
"5+	c #9A9A9A",
"6+	c #FBF6F6",
"7+	c #F6C8C8",
"8+	c #EEE2DF",
"9+	c #E8E0C4",
"0+	c #CBB978",
"a+	c #7B6E42",
"b+	c #245894",
"c+	c #326AA9",
"d+	c #386FAD",
"e+	c #3B72AC",
"f+	c #3C71A4",
"g+	c #5D85A3",
"h+	c #D0CFB2",
"i+	c #EFE5B5",
"j+	c #E8D396",
"k+	c #C3C084",
"l+	c #A29D71",
"m+	c #B7AD8A",
"n+	c #D3C594",
"o+	c #DCD9D1",
"p+	c #F2F2F2",
"q+	c #FDFDFD",
"r+	c #888888",
"s+	c #4A4A4A",
"t+	c #747474",
"u+	c #F9ABAB",
"v+	c #F65D5D",
"w+	c #F7EDED",
"x+	c #EFEFEC",
"y+	c #E8DCB3",
"z+	c #B7A566",
"A+	c #21548F",
"B+	c #2B5E9D",
"C+	c #3164A2",
"D+	c #3367A2",
"E+	c #34669B",
"F+	c #638099",
"G+	c #D8D0A6",
"H+	c #E8DEA4",
"I+	c #E0D497",
"J+	c #B3B07A",
"K+	c #939374",
"L+	c #D2C494",
"M+	c #D2CDBA",
"N+	c #F4F4F4",
"O+	c #FEFEFE",
"P+	c #FBFBFB",
"Q+	c #919191",
"R+	c #A5A5A5",
"S+	c #443F3F",
"T+	c #9F5050",
"U+	c #F31C1C",
"V+	c #F89999",
"W+	c #F6F6F6",
"X+	c #EDEBE3",
"Y+	c #EDDDA4",
"Z+	c #75693E",
"`+	c #183E6E",
" @	c #245491",
".@	c #2A5996",
"+@	c #2D5E97",
"@@	c #305E91",
"#@	c #42698E",
"$@	c #C4C6A8",
"%@	c #F3E3A5",
"&@	c #DAD094",
"*@	c #B0AB76",
"=@	c #ABA684",
"-@	c #D1C598",
";@	c #E1E0DD",
">@	c #FCFCFC",
",@	c #D8D8D8",
"'@	c #C97A7A",
")@	c #DB0606",
"!@	c #F55454",
"~@	c #FAE6E6",
"{@	c #F9F9F9",
"]@	c #F7F7F7",
"^@	c #EFEEED",
"/@	c #EEE5C7",
"(@	c #B9A766",
"_@	c #4E4529",
":@	c #1A4276",
"<@	c #1F4F88",
"[@	c #245389",
"}@	c #265487",
"|@	c #2A5582",
"1@	c #A1B0AC",
"2@	c #F6E7A9",
"3@	c #D7C88B",
"4@	c #A69C6E",
"5@	c #BCB083",
"6@	c #C6BFA4",
"7@	c #909090",
"8@	c #CBCBCB",
"9@	c #7B7B7B",
"0@	c #D0D0D0",
"a@	c #A3A3A3",
"b@	c #F1EBDB",
"c@	c #F2E8C7",
"d@	c #EF9B7C",
"e@	c #F15144",
"f@	c #F5D7D7",
"g@	c #ABABAB",
"h@	c #878787",
"i@	c #E1E1E1",
"j@	c #EDEADF",
"k@	c #E6D38E",
"l@	c #93844F",
"m@	c #15345D",
"n@	c #1B4173",
"o@	c #1D477C",
"p@	c #1F4778",
"q@	c #1F4774",
"r@	c #516B7E",
"s@	c #E4D190",
"t@	c #D6B783",
"u@	c #7C715F",
"v@	c #B6A877",
"w@	c #CDC8B7",
"x@	c #7A7A7A",
"y@	c #3A3A3A",
"z@	c #7F7F7F",
"A@	c #828282",
"B@	c #EFE4BD",
"C@	c #EDDFAE",
"D@	c #EDDDAD",
"E@	c #E7CFB1",
"F@	c #EEEBEB",
"G@	c #848484",
"H@	c #858585",
"I@	c #A6A6A6",
"J@	c #E8E8E8",
"K@	c #EBEAE8",
"L@	c #EEDDA0",
"M@	c #988A53",
"N@	c #132945",
"O@	c #1A385F",
"P@	c #1B3B61",
"Q@	c #183C6C",
"R@	c #163F7D",
"S@	c #1A4078",
"T@	c #1C3B66",
"U@	c #283A4F",
"V@	c #AFA06A",
"W@	c #D8D4C7",
"X@	c #A9A9A9",
"Y@	c #3F3F3F",
"Z@	c #444444",
"`@	c #8B8B8B",
" #	c #E5D9B1",
".#	c #E2D9B9",
"+#	c #EBEBEB",
"@#	c #A2A2A2",
"##	c #C8C8C8",
"$#	c #EEEEEE",
"%#	c #EAEAE9",
"&#	c #F1E1A8",
"*#	c #9B8C55",
"=#	c #101E33",
"-#	c #183154",
";#	c #163465",
">#	c #14366C",
",#	c #14366A",
"'#	c #133465",
")#	c #24384E",
"!#	c #AA9C66",
"~#	c #D5CFBD",
"{#	c #646464",
"]#	c #D5D5D5",
"^#	c #5F5F5F",
"/#	c #6D6D6D",
"(#	c #706954",
"_#	c #DFD3AB",
":#	c #E6DBB5",
"<#	c #DAD5C5",
"[#	c #EDEDED",
"}#	c #979797",
"|#	c #6F6F6F",
"1#	c #7D7D7D",
"2#	c #DFDFDF",
"3#	c #EBEAE6",
"4#	c #EBDB9E",
"5#	c #968751",
"6#	c #112847",
"7#	c #153158",
"8#	c #16325A",
"9#	c #143159",
"0#	c #1D324A",
"a#	c #8F8456",
"b#	c #D4CAA5",
"c#	c #EAEAEA",
"d#	c #BCBCBC",
"e#	c #151515",
"f#	c #202020",
"g#	c #737373",
"h#	c #CECECE",
"i#	c #ECECEC",
"j#	c #F8F8F8",
"k#	c #F0F0F0",
"l#	c #EDEADE",
"m#	c #DDCA8A",
"n#	c #8E804C",
"o#	c #040A12",
"p#	c #08111C",
"q#	c #10223A",
"r#	c #112A4A",
"s#	c #132C4D",
"t#	c #585846",
"u#	c #D6C68E",
"v#	c #E0DED8",
"w#	c #F3F3F3",
"x#	c #505050",
"y#	c #484848",
"z#	c #6C6C6C",
"A#	c #575757",
"B#	c #B7B7B7",
"C#	c #EAEAE8",
"D#	c #F0E8CC",
"E#	c #BAA96B",
"F#	c #000000",
"G#	c #100E08",
"H#	c #B6A568",
"I#	c #D9CFAD",
"J#	c #E8E8E7",
"K#	c #B5B5B5",
"L#	c #676767",
"M#	c #E3E3E3",
"N#	c #D4D4D4",
"O#	c #656565",
"P#	c #AAAAAA",
"Q#	c #F5F5F5",
"R#	c #EBE8DD",
"S#	c #E7D8A2",
"T#	c #544C2D",
"U#	c #584F2F",
"V#	c #CEBC7C",
"W#	c #DAD5C7",
"X#	c #E2E2E2",
"Y#	c #969696",
"Z#	c #E7E7E4",
"`#	c #ECE3BD",
" $	c #9B8E5C",
".$	c #72663D",
"+$	c #D1C083",
"@$	c #D4CCB3",
"#$	c #DDDDDB",
"$$	c #DCDCDC",
"%$	c #9C9C9C",
"&$	c #EAE8DF",
"*$	c #F1E7C3",
"=$	c #9F9263",
"-$	c #211D12",
";$	c #6A5F39",
">$	c #CFBC79",
",$	c #D9CDA3",
"'$	c #D9D5C6",
")$	c #DEDDD9",
"!$	c #D8D8D7",
"~$	c #D3D3D2",
"{$	c #E0DFDC",
"]$	c #ECEAE3",
"^$	c #F0EBD6",
"/$	c #E7DAA9",
"($	c #9F9262",
"_$	c #262215",
":$	c #4F472A",
"<$	c #948550",
"[$	c #C1AF6D",
"}$	c #DDCB8C",
"|$	c #E3D39B",
"1$	c #EBDDA7",
"2$	c #D6C790",
"3$	c #AA9C67",
"4$	c #584E2F",
"5$	c #474026",
"6$	c #4D4529",
"7$	c #4D462A",
"8$	c #4C452B",
"9$	c #443D26",
"                                                                ",
"              . + @ # $ % & * =                                 ",
"          - ; > , ' ) ! ~ { ] ^ / (                             ",
"        _ : < [ } | 1 2 3 4 5 6 7 8                             ",
"      9 0 a b c d e f g h i j k l m n o                         ",
"    p q r s t u b v w u x y z A B C D E                         ",
"    F G H I J v d K L u M N O P Q R S T U                       ",
"  V W X Y Z `  .d .. ... .+.@.#.$.%.&.*.=.-.                    ",
"  ;.>.,.'.).!.~.{.].^./.(._.:.<.[.}.|.1.2.3.                    ",
"  4.5.6.7.8.9.0.a.b.c.d.e.f.g.h.i.j.k.l.m.n.o.p.                ",
"  q.r.s.t.u.v.w.x.y.z.A.B.C.D.E.F.G.H.I.J.K.L.M.N.O.            ",
"  P.Q.R.S.T.U.V.W.X.Y.Z.`. +.+++@+#+$+%+&+*+=+-+;+>+            ",
"  ,+'+)+!+~+{+]+^+/+(+_+:+<+[+}+|+1+2+3+4+5+6+7+8+9+0+a+        ",
"  b+c+d+e+f+g+h+i+j+k+l+m+n+o+p+q+q+r+s+t+5+u+v+w+x+y+z+        ",
"  A+B+C+D+E+F+G+H+I+J+K+L+M+N+q+O+P+Q+R+S+T+U+V+1+W+X+Y+Z+      ",
"  `+ @.@+@@@#@$@%@&@*@=@-@;@>@O+O+q+,@&+'@)@!@~@{@]@^@/@(@_@    ",
"    :@<@[@}@|@1@2@3@4@5@6@7@8@9@0@a@b@c@d@e@f@g@h@7@i@j@k@l@    ",
"    m@n@o@p@q@r@s@t@u@v@w@x@Q+y@z@A@B@C@D@E@F@G@H@I@J@K@L@M@    ",
"      N@O@P@Q@R@S@T@U@V@W@X@Y@r+Z@`@ #C@C@.#+#G@@###$#%#&#*#    ",
"        =#-#;#>#,#'#)#!#~#0@{#]#^#/#(#_#:#<#[#}#|#1#2#3#4#5#    ",
"            6#7#8#9#0#a#b#c#]@{@d#e#f#g#h#i#{@j#]@W+k#l#m#n#    ",
"            o#p#q#r#s#t#u#v#w#c#x#y#z#A#g#B#j#j#]@W+C#D#E#      ",
"                F#F#F#G#H#I#J#K#L#M#N#O#G@P#]@]@Q#i#R#S#T#      ",
"                    F#F#U#V#W#2#&+]@X#I@Y#|#$#W+[#Z#`# $        ",
"                          .$+$@$#$J@$$`@h@%$[#+#&$*$=$-$        ",
"                            ;$>$,$'$)$!$~${$]$^$/$($_$          ",
"                              :$<$[$}$|$S#1$2$3$4$              ",
"                                    5$6$7$8$9$                  ",
"                                                                ",
"                                                                ",
"                                                                ",
"                                                                "};
