/* XPM */
static char * gpsicon_xpm[] = {
"48 48 928 2",
"  	c None",
". 	c #436C8F",
"+ 	c #597C89",
"@ 	c #2660A9",
"# 	c #658189",
"$ 	c #899576",
"% 	c #63787B",
"& 	c #767C6A",
"* 	c #6B6B59",
"= 	c #2663B4",
"- 	c #2C72C7",
"; 	c #3072C4",
"> 	c #839F97",
", 	c #8AAC7F",
"' 	c #8DAC7C",
") 	c #88A572",
"! 	c #839F77",
"~ 	c #7A977A",
"{ 	c #91A36A",
"] 	c #7A9562",
"^ 	c #77915C",
"/ 	c #718456",
"( 	c #4D5941",
"_ 	c #2667B8",
": 	c #2E7CCD",
"< 	c #5793C7",
"[ 	c #C3C2A9",
"} 	c #9CACA2",
"| 	c #7AA297",
"1 	c #759C95",
"2 	c #9DAB91",
"3 	c #95A585",
"4 	c #9DAF7F",
"5 	c #91A977",
"6 	c #88A56A",
"7 	c #919F66",
"8 	c #859C60",
"9 	c #6E9157",
"0 	c #66854E",
"a 	c #5D7A46",
"b 	c #364629",
"c 	c #3370B5",
"d 	c #397FC3",
"e 	c #4180C0",
"f 	c #BCC0B9",
"g 	c #E7E1C0",
"h 	c #AFB9B1",
"i 	c #7799B5",
"j 	c #7795B4",
"k 	c #6A91B1",
"l 	c #9C9DA3",
"m 	c #B8B197",
"n 	c #C2B893",
"o 	c #A8A58A",
"p 	c #5C717C",
"q 	c #7F8571",
"r 	c #B9AB7C",
"s 	c #C0B177",
"t 	c #C2B46A",
"u 	c #959150",
"v 	c #72703B",
"w 	c #3777BC",
"x 	c #447FBC",
"y 	c #578EC0",
"z 	c #E2DFC8",
"A 	c #FDFCDD",
"B 	c #FDFDE0",
"C 	c #FEFDD9",
"D 	c #FDFDE4",
"E 	c #C6D0C0",
"F 	c #6391AC",
"G 	c #4B80A5",
"H 	c #979DA3",
"I 	c #889397",
"J 	c #E2C79F",
"K 	c #D5C89F",
"L 	c #9F9D8E",
"M 	c #91917C",
"N 	c #D5C08A",
"O 	c #939F7F",
"P 	c #DACD83",
"Q 	c #D1C068",
"R 	c #B39E52",
"S 	c #387ABC",
"T 	c #4785C2",
"U 	c #CAD6D0",
"V 	c #F8F8D3",
"W 	c #FEFEF1",
"X 	c #FEFEF8",
"Y 	c #FEFEF5",
"Z 	c #FEFEEE",
"` 	c #FBFBD8",
" .	c #C4D0C2",
"..	c #83ABB9",
"+.	c #9CB9BC",
"@.	c #5C889F",
"#.	c #728A97",
"$.	c #B8AB99",
"%.	c #DAC097",
"&.	c #F2DF9F",
"*.	c #F0DBA3",
"=.	c #B4B295",
"-.	c #B1BB91",
";.	c #CFCA83",
">.	c #D0B962",
",.	c #B19E52",
"'.	c #3273B8",
").	c #4383C2",
"!.	c #D8E3DF",
"~.	c #FDFDDD",
"{.	c #FEFEDE",
"].	c #FEFEE8",
"^.	c #FEFEF2",
"/.	c #FEFEE7",
"(.	c #FEFDE7",
"_.	c #FEFEE1",
":.	c #FEFEDD",
"<.	c #FDFCDF",
"[.	c #FCFCEF",
"}.	c #FDFDEB",
"|.	c #EAEEDB",
"1.	c #BCCBB4",
"2.	c #8AA39C",
"3.	c #E8E1A5",
"4.	c #FEFDBB",
"5.	c #FBF2AB",
"6.	c #E1D6A3",
"7.	c #919F8A",
"8.	c #D3C67C",
"9.	c #D0BC66",
"0.	c #AC9C50",
"a.	c #807346",
"b.	c #2A67A8",
"c.	c #3D7FB9",
"d.	c #75A5CA",
"e.	c #FDFDF7",
"f.	c #FEFEF9",
"g.	c #FDFDF5",
"h.	c #FEFEE0",
"i.	c #FEFEE2",
"j.	c #FEFDD5",
"k.	c #FEFEDF",
"l.	c #FDFDD8",
"m.	c #EBE7B2",
"n.	c #FBF4B1",
"o.	c #FEFDC2",
"p.	c #FCF8B9",
"q.	c #EADD9F",
"r.	c #DDD099",
"s.	c #C7BE7C",
"t.	c #B8A461",
"u.	c #B1A260",
"v.	c #959163",
"w.	c #605A39",
"x.	c #397ABC",
"y.	c #4483C0",
"z.	c #E2E8D8",
"A.	c #FDFDEA",
"B.	c #FEFED9",
"C.	c #FDFBCA",
"D.	c #FEFEDA",
"E.	c #FEFEEB",
"F.	c #FEFEF7",
"G.	c #C6CAA5",
"H.	c #C2C49D",
"I.	c #F8F5B4",
"J.	c #FEFDC0",
"K.	c #E7E4A8",
"L.	c #C2BC97",
"M.	c #CBC088",
"N.	c #AB9F60",
"O.	c #A59D60",
"P.	c #837F57",
"Q.	c #999366",
"R.	c #1B1A15",
"S.	c #2766A9",
"T.	c #397FC0",
"U.	c #4A85C4",
"V.	c #DBD6BC",
"W.	c #EDE7AF",
"X.	c #FDFDE1",
"Y.	c #FEFEE4",
"Z.	c #FEFEE5",
"`.	c #FEFEFB",
" +	c #FEFEF0",
".+	c #EAE7B1",
"++	c #7A9191",
"@+	c #DDD597",
"#+	c #FDF7B1",
"$+	c #FCF7AC",
"%+	c #91957A",
"&+	c #9F9F7A",
"*+	c #A9A368",
"=+	c #AC9F5D",
"-+	c #887F4D",
";+	c #7A7C5C",
">+	c #56533B",
",+	c #3376BA",
"'+	c #3D80C4",
")+	c #4488C7",
"!+	c #B2C6AF",
"~+	c #BBCB9C",
"{+	c #CDD59F",
"]+	c #EFEEB5",
"^+	c #F9F9C9",
"/+	c #FEFDDD",
"(+	c #FEFEED",
"_+	c #FEFED3",
":+	c #F7F3B9",
"<+	c #759193",
"[+	c #CDC79C",
"}+	c #FAEEA9",
"|+	c #FDF9B1",
"1+	c #F3EBA3",
"2+	c #C6BC83",
"3+	c #57635A",
"4+	c #6B6D4F",
"5+	c #92874F",
"6+	c #7E794A",
"7+	c #707055",
"8+	c #040404",
"9+	c #3877BC",
"0+	c #3F80C3",
"a+	c #468AC8",
"b+	c #91AFC0",
"c+	c #C7D0A5",
"d+	c #C8D1A5",
"e+	c #C7D1A9",
"f+	c #C6D4A4",
"g+	c #CFDBA8",
"h+	c #E7EDB9",
"i+	c #FAFAC7",
"j+	c #FAF8C0",
"k+	c #F8F4C0",
"l+	c #FDFAC7",
"m+	c #FEFDC7",
"n+	c #FEFDCA",
"o+	c #FEFDC6",
"p+	c #FEF9B9",
"q+	c #F8EAAB",
"r+	c #ACA891",
"s+	c #99A291",
"t+	c #FAF1A8",
"u+	c #FDFCB4",
"v+	c #FBF6A3",
"w+	c #EFDC8F",
"x+	c #5A5E55",
"y+	c #1C2C3F",
"z+	c #545441",
"A+	c #666240",
"B+	c #5F6244",
"C+	c #2C2C25",
"D+	c #28619F",
"E+	c #4183C3",
"F+	c #4488C6",
"G+	c #4B8DC6",
"H+	c #5C97C2",
"I+	c #719FC2",
"J+	c #6699BE",
"K+	c #81A8B0",
"L+	c #A3C29C",
"M+	c #A8CB9D",
"N+	c #A3CA97",
"O+	c #A5C693",
"P+	c #ACC897",
"Q+	c #D1D09F",
"R+	c #E8DA9F",
"S+	c #F5E1A3",
"T+	c #F7E2A3",
"U+	c #F7DEA3",
"V+	c #E7CB97",
"W+	c #D0C091",
"X+	c #999F85",
"Y+	c #E5DBA7",
"Z+	c #E3D69B",
"`+	c #ADA17D",
" @	c #5C6055",
".@	c #1C2B3B",
"+@	c #222D38",
"@@	c #313639",
"#@	c #3D3E38",
"$@	c #4A4A3B",
"%@	c #303129",
"&@	c #070707",
"*@	c #2B62A3",
"=@	c #387AB9",
"-@	c #3F7FC2",
";@	c #448AC7",
">@	c #4A8DCA",
",@	c #4B8ECA",
"'@	c #4B91C8",
")@	c #4E8EC2",
"!@	c #4F8DBE",
"~@	c #759CAC",
"{@	c #A5C697",
"]@	c #91C091",
"^@	c #83B98A",
"/@	c #83B488",
"(@	c #91B988",
"_@	c #A8BB8A",
":@	c #C2C088",
"<@	c #D4C091",
"[@	c #D5C791",
"}@	c #C8BC85",
"|@	c #D3BE86",
"1@	c #AFA67E",
"2@	c #5D6B6A",
"3@	c #525C5A",
"4@	c #717065",
"5@	c #B7AF91",
"6@	c #E1D5AC",
"7@	c #EEE2B3",
"8@	c #EDDFAC",
"9@	c #E8D9A2",
"0@	c #EADA9F",
"a@	c #E4D498",
"b@	c #CCBD87",
"c@	c #797255",
"d@	c #454031",
"e@	c #1A1913",
"f@	c #2D66A8",
"g@	c #3977B9",
"h@	c #3F7FC0",
"i@	c #4485C4",
"j@	c #4688C6",
"k@	c #4A8AC7",
"l@	c #4D8AC0",
"m@	c #4F87B8",
"n@	c #91A8A3",
"o@	c #B4C795",
"p@	c #A5C28E",
"q@	c #91B888",
"r@	c #9DBC8D",
"s@	c #9FB98A",
"t@	c #B4C08D",
"u@	c #C8C68D",
"v@	c #D6C791",
"w@	c #DAC891",
"x@	c #D5C388",
"y@	c #D5BA82",
"z@	c #998A68",
"A@	c #9B9378",
"B@	c #C7BD99",
"C@	c #E5D6A2",
"D@	c #DFD19E",
"E@	c #D6CA9E",
"F@	c #D2C79E",
"G@	c #D4C9A2",
"H@	c #D4CAA3",
"I@	c #DACEA5",
"J@	c #DFD2A2",
"K@	c #E8D89D",
"L@	c #ECD994",
"M@	c #DACA8E",
"N@	c #938963",
"O@	c #504A34",
"P@	c #2D619E",
"Q@	c #3572B4",
"R@	c #3B7FBE",
"S@	c #3F80C2",
"T@	c #4485C3",
"U@	c #4688C0",
"V@	c #4B85B9",
"W@	c #4881B4",
"X@	c #95A5A5",
"Y@	c #C7CA9C",
"Z@	c #C0C695",
"`@	c #C0C495",
" #	c #CAC497",
".#	c #C0BB88",
"+#	c #CDC28A",
"@#	c #C7C08A",
"##	c #D0C08A",
"$#	c #D2C491",
"%#	c #B6A977",
"&#	c #7A745E",
"*#	c #C6BEA0",
"=#	c #E0D1A0",
"-#	c #D9C891",
";#	c #CDC4A5",
">#	c #C9C5B7",
",#	c #D0CEC6",
"'#	c #DEDCDA",
")#	c #E4E4E3",
"!#	c #E4E4E4",
"~#	c #E4E3E1",
"{#	c #E5E3DE",
"]#	c #E6E3D8",
"^#	c #E4DDC5",
"/#	c #E6D8A4",
"(#	c #EBD894",
"_#	c #CEBF88",
":#	c #635C42",
"<#	c #285F9E",
"[#	c #346EB1",
"}#	c #3D7FC0",
"|#	c #447FC0",
"1#	c #4483BC",
"2#	c #4780B5",
"3#	c #457EB1",
"4#	c #608AAB",
"5#	c #DDD4AF",
"6#	c #D5CA9F",
"7#	c #DECB91",
"8#	c #E7CB95",
"9#	c #DBC78E",
"0#	c #D5C488",
"a#	c #BEAF83",
"b#	c #9A9781",
"c#	c #A2986B",
"d#	c #928C76",
"e#	c #DBD0AA",
"f#	c #DDCC90",
"g#	c #D1C59B",
"h#	c #CFCDC7",
"i#	c #D9D9D9",
"j#	c #E7E7E7",
"k#	c #E3E3E3",
"l#	c #BFBFBF",
"m#	c #E8E8E8",
"n#	c #F6F6F6",
"o#	c #C1C1C1",
"p#	c #EBEBEB",
"q#	c #F4F4F4",
"r#	c #F0F0F0",
"s#	c #E5DFCD",
"t#	c #E8D79A",
"u#	c #EAD896",
"v#	c #887C52",
"w#	c #255C9A",
"x#	c #326AAB",
"y#	c #3972B4",
"z#	c #3D77B9",
"A#	c #3F7AB8",
"B#	c #3F7AB9",
"C#	c #417AB1",
"D#	c #437CB1",
"E#	c #4378AB",
"F#	c #4D7FA9",
"G#	c #DFDAC2",
"H#	c #E7DAAF",
"I#	c #E5D095",
"J#	c #EBCD95",
"K#	c #E7CA91",
"L#	c #D0BE8A",
"M#	c #C5B67E",
"N#	c #AB9E71",
"O#	c #8A8372",
"P#	c #D4C9A1",
"Q#	c #DDCB8C",
"R#	c #CEC7AB",
"S#	c #D3D3CF",
"T#	c #E5E5E5",
"U#	c #F5F5F5",
"V#	c #F9F9F9",
"W#	c #BCBCBC",
"X#	c #151515",
"Y#	c #A1A1A1",
"Z#	c #F8F8F8",
"`#	c #2A2A2A",
" $	c #D1D1D1",
".$	c #FBFBFB",
"+$	c #EDEDED",
"@$	c #E7E3D5",
"#$	c #E7D9A6",
"$$	c #E9D385",
"%$	c #6E633B",
"&$	c #1F538C",
"*$	c #2C63A5",
"=$	c #346CAC",
"-$	c #3972B1",
";$	c #3B75B1",
">$	c #3D77B4",
",$	c #3F77AB",
"'$	c #3F75A5",
")$	c #3E73A4",
"!$	c #5683A5",
"~$	c #E9DFC2",
"{$	c #F2E9C0",
"]$	c #E9D397",
"^$	c #E4CD91",
"/$	c #CFC688",
"($	c #C2B77E",
"_$	c #C1AF7C",
":$	c #857F60",
"<$	c #D2C8A8",
"[$	c #DBC888",
"}$	c #CCC4A6",
"|$	c #D8D8D7",
"1$	c #FDFDFD",
"2$	c #FEFEFE",
"3$	c #494949",
"4$	c #D2D2D2",
"5$	c #FBCDCD",
"6$	c #F43E3E",
"7$	c #F5C7C7",
"8$	c #EEEEEE",
"9$	c #E7E4DA",
"0$	c #E8D89E",
"a$	c #D4BE71",
"b$	c #5B5231",
"c$	c #184476",
"d$	c #275D9D",
"e$	c #2E66A5",
"f$	c #346AAB",
"g$	c #386EAC",
"h$	c #3971AC",
"i$	c #396EA3",
"j$	c #3B6EA2",
"k$	c #3B6D9E",
"l$	c #C3C6AC",
"m$	c #E8DFB1",
"n$	c #F1ECC0",
"o$	c #EDDEA3",
"p$	c #E8D191",
"q$	c #CBC788",
"r$	c #A7B07C",
"s$	c #878562",
"t$	c #B7AF97",
"u$	c #DBC889",
"v$	c #CCC19B",
"w$	c #D8D7D4",
"x$	c #FCFCFC",
"y$	c #BBBBBB",
"z$	c #2F2F2F",
"A$	c #686868",
"B$	c #787878",
"C$	c #FBCECE",
"D$	c #F20000",
"E$	c #F77E7E",
"F$	c #F7F7F7",
"G$	c #EAE8E0",
"H$	c #EDD88F",
"I$	c #C3AF69",
"J$	c #352F1C",
"K$	c #225793",
"L$	c #2A609F",
"M$	c #3063A3",
"N$	c #3468A5",
"O$	c #346AA8",
"P$	c #356A9F",
"Q$	c #35669C",
"R$	c #386294",
"S$	c #D8D1AC",
"T$	c #E4D9A8",
"U$	c #E5DEA5",
"V$	c #E9DEA3",
"W$	c #DDCF91",
"X$	c #C0B980",
"Y$	c #9DA371",
"Z$	c #898872",
"`$	c #D4C89E",
" %	c #CABA84",
".%	c #D1CFC7",
"+%	c #ECECEC",
"@%	c #FAFAFA",
"#%	c #3E3E3E",
"$%	c #C9C9C9",
"%%	c #313131",
"&%	c #CF9292",
"*%	c #F32020",
"=%	c #F31F1F",
"-%	c #F9BCBC",
";%	c #EDE5C5",
">%	c #ECD686",
",%	c #72673D",
"'%	c #1E4D87",
")%	c #275795",
"!%	c #2B5C99",
"~%	c #2F609F",
"{%	c #30629F",
"]%	c #306297",
"^%	c #346295",
"/%	c #335F8F",
"(%	c #889797",
"_%	c #E8DAA3",
":%	c #EEE0A5",
"<%	c #E7DD9F",
"[%	c #D9D093",
"}%	c #C0BA81",
"|%	c #8D9268",
"1%	c #9E9A83",
"2%	c #DECC8B",
"3%	c #C1B9A0",
"4%	c #8B8B8B",
"5%	c #380A0A",
"6%	c #E81515",
"7%	c #F43F3F",
"8%	c #EEECE2",
"9%	c #EEDD9F",
"0%	c #D4BF72",
"a%	c #3F3821",
"b%	c #153662",
"c%	c #21508D",
"d%	c #255691",
"e%	c #295793",
"f%	c #2C5C97",
"g%	c #2C5C8E",
"h%	c #2F5C8E",
"i%	c #2D5989",
"j%	c #577A91",
"k%	c #F7EEBB",
"l%	c #FBE8A9",
"m%	c #EFDF9F",
"n%	c #CDC68D",
"o%	c #C3BC7D",
"p%	c #8A8665",
"q%	c #CAC09A",
"r%	c #D1BF82",
"s%	c #CECECE",
"t%	c #F1F1F1",
"u%	c #F8CBCB",
"v%	c #F42F2F",
"w%	c #F2F2F2",
"x%	c #EAEAEA",
"y%	c #EFE5C2",
"z%	c #EED786",
"A%	c #1B477F",
"B%	c #1F4E88",
"C%	c #22548D",
"D%	c #25568E",
"E%	c #27568A",
"F%	c #29578A",
"G%	c #285687",
"H%	c #385D83",
"I%	c #F2F1D8",
"J%	c #FCEFB5",
"K%	c #E9D599",
"L%	c #CAC184",
"M%	c #BDB379",
"N%	c #7D785C",
"O%	c #DCCE9B",
"P%	c #C6BA8E",
"Q%	c #C6C6C6",
"R%	c #979797",
"S%	c #E9E9E9",
"T%	c #C8C8C8",
"U%	c #949494",
"V%	c #D4D4D4",
"W%	c #A9A9A9",
"X%	c #F4ECD4",
"Y%	c #F08F76",
"Z%	c #F05441",
"`%	c #A7A7A7",
" &	c #7D7D7D",
".&	c #7C7C7C",
"+&	c #7B7B7B",
"@&	c #D7D7D7",
"#&	c #EFEAD6",
"$&	c #EFDC97",
"%&	c #112B4F",
"&&	c #1B447A",
"*&	c #1D4B83",
"=&	c #1F4D83",
"-&	c #214E80",
";&	c #224E83",
">&	c #224D7E",
",&	c #224D77",
"'&	c #A9B497",
")&	c #FCF2A9",
"!&	c #EED695",
"~&	c #D4C287",
"{&	c #BCAB75",
"]&	c #6C6759",
"^&	c #E1CF91",
"/&	c #C9C1A0",
"(&	c #BEBEBE",
"_&	c #373737",
":&	c #C7C7C7",
"<&	c #636363",
"[&	c #0A0A0A",
"}&	c #898989",
"|&	c #747474",
"1&	c #EEE6CB",
"2&	c #EDDFAE",
"3&	c #EDD1A3",
"4&	c #F3B29F",
"5&	c #FAEBEB",
"6&	c #535353",
"7&	c #8D8D8D",
"8&	c #BABABA",
"9&	c #ECE9E0",
"0&	c #F1E0A7",
"a&	c #17345D",
"b&	c #1B4175",
"c&	c #1A447A",
"d&	c #1D4475",
"e&	c #1D4472",
"f&	c #1D4570",
"g&	c #1E4471",
"h&	c #4A627A",
"i&	c #D9C78A",
"j&	c #DBC07F",
"k&	c #CEA67E",
"l&	c #71615E",
"m&	c #5C5A4D",
"n&	c #DFCC86",
"o&	c #CAC4AE",
"p&	c #DDDDDD",
"q&	c #5A5A5A",
"r&	c #ACACAC",
"s&	c #454545",
"t&	c #767676",
"u&	c #4B4B4B",
"v&	c #A2A2A2",
"w&	c #F1E6C2",
"x&	c #DDD6BE",
"y&	c #EFEFEF",
"z&	c #6D6D6D",
"A&	c #919191",
"B&	c #E9E9E7",
"C&	c #F3E5B5",
"D&	c #19365C",
"E&	c #1B3B66",
"F&	c #1B3C68",
"G&	c #1B3F66",
"H&	c #1A3E67",
"I&	c #173F77",
"J&	c #164385",
"K&	c #1B447F",
"L&	c #22446E",
"M&	c #213B5C",
"N&	c #153252",
"O&	c #514D3C",
"P&	c #DFCB82",
"Q&	c #CEC9B6",
"R&	c #4C4C4C",
"S&	c #343434",
"T&	c #929292",
"U&	c #545454",
"V&	c #383838",
"W&	c #C5C5C5",
"X&	c #A6A6A6",
"Y&	c #B4B4B4",
"Z&	c #F3E7BA",
"`&	c #070E18",
" *	c #182E4E",
".*	c #1A3457",
"+*	c #193865",
"@*	c #143977",
"#*	c #143975",
"$*	c #143972",
"%*	c #12336C",
"&*	c #123166",
"**	c #4B4A3E",
"=*	c #DDC97F",
"-*	c #CCC6B1",
";*	c #9E9E9E",
">*	c #171717",
",*	c #D5D5D5",
"'*	c #363636",
")*	c #3A3A3A",
"!*	c #939393",
"~*	c #C2B792",
"{*	c #E9E8E6",
"]*	c #F3E5B6",
"^*	c #060A12",
"/*	c #162948",
"(*	c #173257",
"_*	c #153061",
":*	c #163466",
"<*	c #143466",
"[*	c #143463",
"}*	c #13335F",
"|*	c #143151",
"1*	c #424438",
"2*	c #DCC77B",
"3*	c #CAC0A0",
"4*	c #D6D6D6",
"5*	c #5D5D5D",
"6*	c #6E6E6E",
"7*	c #7E7E7E",
"8*	c #5F5F5F",
"9*	c #000000",
"0*	c #BFB48F",
"a*	c #E5DAB6",
"b*	c #DFD7BC",
"c*	c #EAE9E2",
"d*	c #F2E4AF",
"e*	c #0D1F37",
"f*	c #16335B",
"g*	c #17345C",
"h*	c #16325C",
"i*	c #16325A",
"j*	c #14325A",
"k*	c #133159",
"l*	c #153052",
"m*	c #353B34",
"n*	c #CDB86E",
"o*	c #CDC090",
"p*	c #E0E0E0",
"q*	c #5E5E5E",
"r*	c #999999",
"s*	c #C2C2C2",
"t*	c #DBDBDB",
"u*	c #EFEBDE",
"v*	c #F2E0A4",
"w*	c #040910",
"x*	c #0E213A",
"y*	c #153359",
"z*	c #133057",
"A*	c #212E3A",
"B*	c #A29157",
"C*	c #D6C17C",
"D*	c #D8D8D8",
"E*	c #434343",
"F*	c #7A7A7A",
"G*	c #F3F3F3",
"H*	c #E3E3E2",
"I*	c #F3ECD2",
"J*	c #F0DC94",
"K*	c #030404",
"L*	c #0D1623",
"M*	c #0D2139",
"N*	c #102846",
"O*	c #112C51",
"P*	c #0E2644",
"Q*	c #666041",
"R*	c #D8C374",
"S*	c #D1CAAE",
"T*	c #E2E2E2",
"U*	c #101010",
"V*	c #9B9B9B",
"W*	c #8C8C8C",
"X*	c #3C3C3C",
"Y*	c #3D3D3D",
"Z*	c #4A4A4A",
"`*	c #ECEBE4",
" =	c #F3E6B7",
".=	c #D5C179",
"+=	c #242013",
"@=	c #BDAA65",
"#=	c #D5C58C",
"$=	c #DAD7CE",
"%=	c #B5B5B5",
"&=	c #A0A0A0",
"*=	c #F5EFDB",
"==	c #EFDC9B",
"-=	c #766A3F",
";=	c #DCC77A",
">=	c #D9CEA6",
",=	c #DCDBD8",
"'=	c #B8B8B8",
")=	c #CDCDCD",
"!=	c #282828",
"~=	c #444444",
"{=	c #EFEEE9",
"]=	c #F3E5B0",
"^=	c #C4B270",
"/=	c #2F2B19",
"(=	c #A79659",
"_=	c #D8C47A",
":=	c #D4CBAC",
"<=	c #DAD9D8",
"[=	c #555555",
"}=	c #EBEAE4",
"|=	c #F4ECC9",
"1=	c #D6C37E",
"2=	c #544B2D",
"3=	c #272314",
"4=	c #B4A160",
"5=	c #D8C47D",
"6=	c #D0C8AD",
"7=	c #D5D4D0",
"8=	c #DEDEDE",
"9=	c #4D4D4D",
"0=	c #595959",
"a=	c #8F8F8F",
"b=	c #EEEBE3",
"c=	c #F5ECCB",
"d=	c #EEDC9D",
"e=	c #6B603A",
"f=	c #3A331F",
"g=	c #C0AC67",
"h=	c #DCC77E",
"i=	c #D0C498",
"j=	c #D0CEC8",
"k=	c #DFDFDF",
"l=	c #C4C4C4",
"m=	c #E1E1E1",
"n=	c #F2F0E5",
"o=	c #F5E8BE",
"p=	c #EBD995",
"q=	c #7D7147",
"r=	c #0E0C07",
"s=	c #AD9B5C",
"t=	c #DCC576",
"u=	c #DDC980",
"v=	c #D7CDA8",
"w=	c #D6D2C2",
"x=	c #DBD8D0",
"y=	c #DDDCD9",
"z=	c #DCDCDB",
"A=	c #DFDFDD",
"B=	c #E5E4DF",
"C=	c #ECEAE3",
"D=	c #F4F0DF",
"E=	c #F5EBC6",
"F=	c #F0E0A4",
"G=	c #C4B16C",
"H=	c #51492C",
"I=	c #1A180E",
"J=	c #695E38",
"K=	c #B09E5F",
"L=	c #E4CE7B",
"M=	c #E4D085",
"N=	c #E0CF94",
"O=	c #E0D3A3",
"P=	c #E2D6AD",
"Q=	c #E4D9B2",
"R=	c #EBDFB7",
"S=	c #F2E7BC",
"T=	c #F3E6B4",
"U=	c #EFDD9C",
"V=	c #D4C27E",
"W=	c #887A4A",
"X=	c #2D2918",
"Y=	c #50482B",
"Z=	c #92834E",
"`=	c #CEB96E",
" -	c #E6CE7B",
".-	c #E8D17D",
"+-	c #E9D381",
"@-	c #E0CB7F",
"#-	c #BDAB6A",
"$-	c #625836",
"%-	c #37321E",
"&-	c #100E09",
"                                                                                                ",
"                          . + @ # $ % & *                                                       ",
"                    = - ; > , ' ) ! ~ { ] ^ / (                                                 ",
"                _ : < [ } | 1 2 3 4 5 6 7 8 9 0 a b                                             ",
"              c d e f g h i j k l m n o p q r s t u v                                           ",
"            w x y z A B C D E F G H I J K L M N O P Q R                                         ",
"          S T U V C W X Y Z `  ...+.@.#.$.%.&.*.=.-.;.>.,.                                      ",
"        '.).!.~.{.].^./.(._.:.<.[.}.|.1.2.3.4.5.6.7.8.9.0.a.                                    ",
"      b.c.d.e.f.X g.Z h.i.].:.j.k./.^.l.m.n.o.p.q.r.s.t.u.v.w.                                  ",
"      x.y.z.B W Y A./.B.].].A C.D.E.F.h.G.H.I.J.K.L.M.N.O.P.Q.R.                                ",
"    S.T.U.V.W.C.D.X.Y.Z.X `.W Y./.Z  +B..+++@+#+$+%+&+*+=+-+;+>+                                ",
"    ,+'+)+!+~+{+]+^+/+Y.].E.Z.h./.(+/._+:+<+[+}+|+1+2+3+4+5+6+7+8+                              ",
"    9+0+a+b+c+d+e+f+g+h+i+j+k+l+m+n+o+p+q+r+s+t+u+v+w+x+y+z+A+B+C+                              ",
"  D+x.E+F+G+H+I+J+K+L+M+N+O+P+Q+R+S+T+U+V+W+X+Y+Z+`+ @.@+@@@#@$@%@&@                            ",
"  *@=@-@;@>@,@'@)@!@~@{@]@^@/@(@_@:@<@[@}@|@1@2@3@4@5@6@7@8@9@0@a@b@c@d@e@                      ",
"  f@g@h@i@j@k@G+l@m@n@o@p@q@r@s@t@u@v@w@x@y@z@A@B@C@D@E@F@G@H@I@J@K@L@M@N@O@                    ",
"  P@Q@R@S@T@j@U@V@W@X@Y@Z@`@ #.#+#@###$#%#&#*#=#-#;#>#,#'#)#!#~#{#]#^#/#(#_#:#                  ",
"  <#[#g@}#|#y.1#2#3#4#5#6#7#8#9#0#a#b#c#d#e#f#g#h#i#j#k#l#m#n#o#p#q#r#m#s#t#u#v#                ",
"  w#x#y#z#A#B#C#D#E#F#G#H#I#J#K#L#M#N#O#P#Q#R#S#T#U#V#W#X#Y#Z#`# $.$V#q#+$@$#$$$%$              ",
"  &$*$=$-$;$>$,$'$)$!$~${$]$^$/$($_$:$<$[$}$|$+$Z#1$2$W#&@3$i#`#4$1$5$6$7$8$9$0$a$b$            ",
"  c$d$e$f$g$h$i$j$k$l$m$n$o$p$q$r$s$t$u$v$w$q#.$2$2$x$y$z$A$B$`#4$C$D$E$.$F$r#G$H$I$J$          ",
"    K$L$M$N$O$P$Q$R$S$T$U$V$W$X$Y$Z$`$ %.%+%.$2$2$1$@%y$#%$%%%`#&%*%=%-%.$V#q#+$;%>%,%J$        ",
"    '%)%!%~%{%]%^%/%(%_%:%<%[%}%|%1%2%3%!#F$2$2$2$1$@%y$#%n#4%5%6%D$7%.$@%V#n#+$8%9%0%a%        ",
"    b%c%d%e%f%g%h%i%j%k%l%m%n%o%p%q%r%s%t%x$2$2$2$2$2$.$@%@%u%D$D$v%.$@%V#Z#F$w%x%y%z%,%a%      ",
"      A%B%C%D%E%F%G%H%I%J%K%L%M%N%O%P%Q%R%S%T%U%j#V%W%t%X%X%Y%Z%D$-%r#`% &.&+&@&S%#&$&0%,%      ",
"      %&&&*&=&-&;&>&,&'&)&!&~&{&]&^&/&(&_&:&<&[&o#}&|&1&2&2&2&3&4&5&T#6&7&y$8&j#+%9&0&0%,%      ",
"        a&b&c&d&e&f&g&h&i&j&k&l&m&n&o&p&q&r&#%s&t&u&v&w&2&2&2&2&x&y&T#6&z&A&Y#T#8$B&C&z%,%      ",
"          D&E&F&G&H&I&J&K&L&M&N&O&P&Q&+% &R&S&T&U&V&W&w&2&2&2&2&x&8$T#6& &X&Y&S%8$m#Z&z%,%      ",
"          `& *.*.*+*@*@*#*$*%*&***=*-*+$;*>*z&,*'*)*!*~*2&2&2&2&x&8$T#6&W#@%@%F$+${*]*z%,%      ",
"            ^*/*(*_*:*<*<*[*}*|*1*2*3*S%4*5*W#.$6*7*8*9*0*a*a*b*4$t%S%.&#%#%#%T%+%c*d*0%,%      ",
"                e*f*g*h*i*j*k*l*m*n*o*p*t%F$@%@%@%q*9*9*_&r*s*t*+$V#V#Z#Z#F$n#U#m#u*v*0%,%      ",
"                  w*x*y*i*i*k*z*A*B*C*D*+$q#F$V#@%9*9*'*E*F*$%y&V#V#Z#Z#F$F$n#G*H*I*J*,%        ",
"                    9*K*L*M*N*O*P*Q*R*S*T*t%n#i#z$U*V*W*t&X*Y*Z*(&Z#Z#F$F$n#U#j#`* =.=,%        ",
"                      9*9*9*9*9*9*+=@=#=$=S%t%F*9*V*Z#t%F*s&%=&=o#Z#F$F$n#n#+%k#*===,%a%        ",
"                          9*9*9*9*9*-=;=>=,=+%4$'=Z#Z#F$)=q&!=~=8&F$F$n#n#r#T*{=]=^=/=          ",
"                                9*9*9*(=_=:=<=T#+$q#F$F$r&l#F$z&[=!#n#U#y&p*}=|=1=2=            ",
"                                      3=4=5=6=7=8=m#r#q#&=9=t&0=a=y&w%x%T*b=c=d=e=9*            ",
"                                        f=g=h=i=j=k=8=T*m#l='=l=k#m#m=S%n=o=p=q=r=              ",
"                                          9*s=t=u=v=w=x=y=z=8=A=B=C=D=E=F=G=H=9*                ",
"                                            I=J=K=L=M=N=O=P=Q=R=S=T=U=V=W=a%                    ",
"                                                X=Y=Z=`= -.-.-+-@-#-$-%-&-                      ",
"                                                      9*9*9*9*9*9*9*                            ",
"                                                                                                ",
"                                                                                                ",
"                                                                                                ",
"                                                                                                ",
"                                                                                                ",
"                                                                                                "};
